# xmcd
#
# Track frame offsets: 
#        182
#        20110
#        31027
#        45687
#        62247
#        76940
#        91467
#        106377
#        120367
#        135637
#
# Disc length: 1986 seconds
#
# Revision: 3
# Processed by: cddbd v1.5.2PL0 Copyright (c) Steve Scherf et al.
# Submitted via: ExactAudioCopyFreeDBPlugin 1.0
#
DISCID=7b07c00a
DTITLE=Ronna Reeves - Only The Heart
DYEAR=1991
DGENRE=Country
TTITLE0=That's More About Love (Than I Wanted To Know)
TTITLE1=Sadly Mistaken
TTITLE2=Ain't No Future In The Past
TTITLE3=Only The Heart
TTITLE4=I Could Be Loving You
TTITLE5=Talk Back Trembling Lips
TTITLE6=Same Old Story
TTITLE7=Sayin' You're Wrong Don't Make It Right
TTITLE8=If I Were You
TTITLE9=The Letter
EXTD=
EXTT0=
EXTT1=
EXTT2=
EXTT3=
EXTT4=
EXTT5=
EXTT6=
EXTT7=
EXTT8=
EXTT9=
PLAYORDER=
